<svg xmlns="http://www.w3.org/2000/svg" viewBox="0 0 48 48"><defs><style>.cls-1{fill:none;}.cls-2{fill:#fd5637;}</style></defs><title>add-menber</title><g id="图层_2" data-name="图层 2"><g id="图层_1-2" data-name="图层 1"><rect class="cls-1" width="48" height="48"/><path class="cls-2" d="M32.41,26.5a2,2,0,0,0-.52-2.78,18.65,18.65,0,0,0-4.79-2.35,10.5,10.5,0,1,0-11.33-.08A18.76,18.76,0,0,0,2.59,39.17a2,2,0,0,0,4,0A14.73,14.73,0,0,1,29.63,27,2,2,0,0,0,32.41,26.5ZM21.5,6A6.5,6.5,0,1,1,15,12.5,6.51,6.51,0,0,1,21.5,6Z"/><path class="cls-2" d="M45,33H41V28a2,2,0,0,0-4,0v5H31a2,2,0,0,0,0,4h6v5a2,2,0,0,0,4,0V37h4a2,2,0,0,0,0-4Z"/></g></g></svg>