<svg xmlns="http://www.w3.org/2000/svg" viewBox="0 0 36 36"><defs><style>.cls-1{fill:none;}.cls-2{fill:#fd5637;}</style></defs><title>back</title><g id="图层_2" data-name="图层 2"><g id="图层_1-2" data-name="图层 1"><rect class="cls-1" width="36" height="36"/><path class="cls-2" d="M16.72,18.47l3.56-3.59A1.35,1.35,0,0,0,18.36,13l-4.52,4.56a1.35,1.35,0,0,0,0,1.91l4.52,4.45A1.35,1.35,0,1,0,20.27,22Z"/><path class="cls-2" d="M32.39,11.79a15.28,15.28,0,0,0-8.1-8.1,15.34,15.34,0,0,0-11.86,0,15.23,15.23,0,1,0,20,8.1ZM31,17.71A12.69,12.69,0,1,1,18.36,5,12.7,12.7,0,0,1,31,17.71Z"/></g></g></svg>