<svg xmlns="http://www.w3.org/2000/svg" viewBox="0 0 24 24"><defs><style>.cls-1{fill:none;}.cls-2{fill:#fc573f;}</style></defs><title>back</title><g id="图层_2" data-name="图层 2"><g id="图层_1-2" data-name="图层 1"><rect class="cls-1" width="24" height="24"/><path class="cls-2" d="M13.5,16a1,1,0,0,1-.71-.29l-3-3a1,1,0,0,1,0-1.41l3-3a1,1,0,0,1,1.41,1.41L11.91,12l2.29,2.29A1,1,0,0,1,13.5,16Z"/><path class="cls-2" d="M12,21a9,9,0,1,1,9-9A9,9,0,0,1,12,21ZM12,5a7,7,0,1,0,7,7A7,7,0,0,0,12,5Z"/></g></g></svg>