<svg xmlns="http://www.w3.org/2000/svg" viewBox="0 0 48 48"><defs><style>.a,.b,.c{fill:none;}.a,.c{stroke:#8f97ab;stroke-linejoin:round;stroke-width:4px;}.a{stroke-linecap:round;}</style></defs><title>dianshang</title><path class="a" d="M42,0"/><rect class="b" width="48" height="48"/><path class="a" d="M18,17"/><path class="a" d="M18,17h0a6,6,0,0,1-6,6h0a6,6,0,0,1-6-6V15"/><path class="a" d="M30,17h0a6,6,0,0,1-6,6h0a6,6,0,0,1-6-6v0"/><path class="a" d="M42,15v2a6,6,0,0,1-6,6h0a6,6,0,0,1-6-6v0"/><polyline class="a" points="38 24 38 42 10 42 10 24"/><polyline class="a" points="6 15 12 8 36 8 42 15"/><line class="a" x1="6" y1="42" x2="42" y2="42"/><rect class="c" x="18" y="30" width="12" height="12"/></svg>