<svg xmlns="http://www.w3.org/2000/svg" viewBox="0 0 48 48"><defs><style>.a,.b,.c,.d,.e{fill:none;}.a{stroke:#8f97ab;}.a,.c,.d{stroke-linecap:round;}.a,.c,.d,.e{stroke-linejoin:round;stroke-width:4px;}.a,.c{fill-rule:evenodd;}.c,.d,.e{stroke:#fff;}</style></defs><title>dianshang-c</title><path class="a" d="M42,0"/><rect class="b" width="48" height="48"/><path class="c" d="M18,17"/><path class="c" d="M18,17h0a6,6,0,0,1-6,6h0a6,6,0,0,1-6-6V15"/><path class="c" d="M30,17h0a6,6,0,0,1-6,6h0a6,6,0,0,1-6-6v0"/><path class="c" d="M42,15v2a6,6,0,0,1-6,6h0a6,6,0,0,1-6-6v0"/><polyline class="c" points="38 24 38 42 10 42 10 24"/><polyline class="d" points="6 15 12 8 36 8 42 15"/><line class="d" x1="6" y1="42" x2="42" y2="42"/><rect class="e" x="18" y="30" width="12" height="12"/></svg>