<svg xmlns="http://www.w3.org/2000/svg" viewBox="0 0 20 20"><defs><style>.cls-1{fill:none;}.cls-2{fill:#fd5637;}</style></defs><title>资源 39</title><g id="图层_2" data-name="图层 2"><g id="图层_1-2" data-name="图层 1"><rect class="cls-1" width="20" height="20"/><path class="cls-2" d="M9,13.9V14h.1l.19.19a1,1,0,0,0,1.41,0L10.9,14H11v-.1l4-4a1,1,0,0,0-1.41-1.41L11,11.07V2H9v9.07L6.46,8.54A1,1,0,0,0,5.05,10Z"/><path class="cls-2" d="M18,10v8H3a1,1,0,0,1-1-1V10H0v7a3,3,0,0,0,3,3H18a2,2,0,0,0,2-2V10Z"/></g></g></svg>