<svg xmlns="http://www.w3.org/2000/svg" viewBox="0 0 48 48"><defs><style>.cls-1{fill:none;}.cls-2{fill:#4d4d4d;}</style></defs><title>du</title><g id="图层_2" data-name="图层 2"><g id="图层_1-2" data-name="图层 1"><rect class="cls-1" width="48" height="48"/><path class="cls-2" d="M39.78,28H22a2,2,0,0,1-2-2V9.39a2,2,0,0,1,1.87-2h.21c.34,0,.69,0,1,0A18.69,18.69,0,0,1,41.78,26,2,2,0,0,1,39.78,28ZM24,24H37.64A14.69,14.69,0,0,0,24,11.36Z"/><path class="cls-2" d="M23.08,41a15.34,15.34,0,0,1-6.42-29.26,2,2,0,1,1,1.68,3.63,11.34,11.34,0,1,0,15.35,14.3,2,2,0,1,1,3.74,1.41A15.41,15.41,0,0,1,23.08,41Z"/></g></g></svg>