<svg xmlns="http://www.w3.org/2000/svg" viewBox="0 0 48 48"><defs><style>.cls-1{fill:none;}.cls-2{fill:#4d4d4d;}</style></defs><title>fasong</title><g id="图层_2" data-name="图层 2"><g id="图层_1-2" data-name="图层 1"><rect class="cls-1" width="48" height="48"/><g id="_编组_" data-name="&lt;编组&gt;"><path class="cls-2" d="M31.92,35.13a3.12,3.12,0,0,1-1.47-.37L9,23.6a3.15,3.15,0,0,1,.21-5.69L36.49,6.16a2,2,0,0,1,2.76,2.18L35,32.53a3.14,3.14,0,0,1-3.09,2.6Zm-.85-3.29h0Zm1.22-.62h0ZM12.42,20.88l13.54,7h0l5.32,2.77,3.4-19.39Z"/><path class="cls-2" d="M18.28,41.12a2,2,0,0,1-2-2.12L17,27.08a2,2,0,0,1,.56-1.27l.42-.44L34.12,8.68A2,2,0,0,1,37,11.46L20.93,28.06l-.25,4.27,2.71-3.79A2,2,0,0,1,26.07,28a2,2,0,0,1,.7,2.72l-.11.17-6.75,9.42A2,2,0,0,1,18.28,41.12Z"/></g></g></g></svg>