<svg xmlns="http://www.w3.org/2000/svg" viewBox="0 0 36 36"><defs><style>.cls-1{fill:#3da840;}.cls-2{fill:#fff;}</style></defs><title>di</title><g id="图层_2" data-name="图层 2"><g id="图层_1-2" data-name="图层 1"><rect class="cls-1" width="36" height="36" rx="15.6" ry="15.6"/><path class="cls-2" d="M16.48,8.45c-.24-.44-.33-.62-.66-1.17l2.51-.77a11.81,11.81,0,0,1,.9,1.94h6.31a17,17,0,0,0,2.31-.13v2.22a17.11,17.11,0,0,0-2.29-.11H10.39a17,17,0,0,0-2.27.11V8.32a18,18,0,0,0,2.4.13ZM8.74,19a19.49,19.49,0,0,0-.09-2c.7.07,1.34.09,2.31.09H25.17A17.73,17.73,0,0,0,27.35,17a18.53,18.53,0,0,0-.09,2v5.61c0,1.1-.11,1.52-.53,1.89s-1.08.53-2.66.53c-.51,0-.59,0-1.25,0-.35,0-.35,0-.7,0a5.68,5.68,0,0,0-.48-2.2q1.82.2,2.64.2c.46,0,.57-.09.57-.46V19H11.16v5.85a15,15,0,0,0,.13,2.42H8.61a15.6,15.6,0,0,0,.13-2.42Zm2.73-6.18c0-.71,0-1.08-.07-1.61a18.8,18.8,0,0,0,2.13.09h9.15a16.23,16.23,0,0,0,2-.09c0,.57-.07.9-.07,1.61V14.7a15.09,15.09,0,0,0,.07,1.63,17.49,17.49,0,0,0-2.07-.09H13.47a19.27,19.27,0,0,0-2.07.09,15.63,15.63,0,0,0,.07-1.63ZM22.69,23.06a12.93,12.93,0,0,0,.07,1.47c-.42,0-1.25-.06-1.83-.06H15c-.7,0-1.1,0-1.83.06a13.6,13.6,0,0,0,.07-1.47V21.21a13,13,0,0,0-.07-1.43c.51,0,1,.07,1.78.07h6c.84,0,1.14,0,1.8-.07a12.11,12.11,0,0,0-.07,1.43Zm-8.93-8.65h8.52V13.07H13.75Zm1.63,8.32h5.19V21.52H15.38Z"/></g></g></svg>