<svg xmlns="http://www.w3.org/2000/svg" viewBox="0 0 36 36"><defs><style>.a{fill:none;}.b{opacity:0;}.c{fill:#a7aec1;fill-rule:evenodd;}</style></defs><title>hit</title><rect class="a" width="36" height="36"/><path class="c" d="M6.77,22.74h0ZM31,14A13.6,13.6,0,0,0,5.52,12.61a13.6,13.6,0,0,0,19.1,17.28,13,13,0,0,0,1.49-1,.77.77,0,0,0,.33-.42.71.71,0,0,0-1-.8,13.11,13.11,0,0,1-2.31,1.39l-.3.13-.07,0,0,0,0,0-.11,0-.66.24a13,13,0,0,1-1.3.37L20,30l-.32.05h0l-.23,0a13.09,13.09,0,0,1-2.85,0l-.17,0h0L16,30l-.69-.14a12.85,12.85,0,0,1-1.3-.37l-.61-.22-.15-.06h0l-.34-.15a12.88,12.88,0,0,1-2.23-1.33l-.12-.09h0l-.24-.19L9.8,27c-.32-.29-.62-.6-.91-.92l-.4-.47-.1-.12,0,0,0,0,0,0-.19-.26a12.88,12.88,0,0,1-1.32-2.27l-.06-.15v0c.06.13,0,0,0,0l-.12-.3c-.08-.22-.16-.44-.23-.66a12.75,12.75,0,0,1-.35-1.31c0-.22-.09-.44-.12-.67l0-.17h0c0,.07,0-.12,0,0v0c0-.13,0-.26,0-.39a13,13,0,0,1,0-2.81v0h0v0l0-.16c0-.11,0-.22.05-.33s.09-.47.15-.7a12.82,12.82,0,0,1,.39-1.32c.07-.21.15-.41.23-.61,0,.05-.05.13,0,0h0v0l.06-.14L7,12.75a12.86,12.86,0,0,1,1.37-2.22s-.07.1,0,0h0l0,0,.1-.12.2-.24.45-.5c.29-.31.61-.61.93-.89l.48-.39h0l.12-.09L11,8a12.86,12.86,0,0,1,2.3-1.28h0l0,0,.15-.06.3-.11.66-.22A12.85,12.85,0,0,1,15.78,6L16.11,6l.17,0h.06l.7-.07a13,13,0,0,1,1.4,0l.67,0,.33,0,.17,0h.09a13,13,0,0,1,1.37.28,12.67,12.67,0,0,1,1.3.41l.3.12.08,0-.06,0,.06,0,.09,0,.62.29a12.76,12.76,0,0,1,1.15.66l.52.35.25.18.06,0,.12.09a13,13,0,0,1,1.84,1.8l.2.24.05.07,0,.05,0-.05.06.08c.14.18.27.36.39.55a12.92,12.92,0,0,1,.67,1.11c.1.18.19.37.28.56l.13.28.06.14h0v0l0,.06a12.8,12.8,0,0,1,.44,1.28c.12.4.21.81.29,1.22l.06.32,0,.16v0c0-.13,0,.08,0,0h0c0,.22,0,.44.07.65a13.06,13.06,0,0,1-.07,2.63v0h0l0,.15c0,.11,0,.22-.06.33s-.09.44-.14.66A12.63,12.63,0,0,1,29.52,22c-.07.2-.14.4-.22.6l0,.12v0l0,.06-.13.29c-.18.39-.38.76-.59,1.13a.71.71,0,0,0,1.22.71A13.73,13.73,0,0,0,31,14ZM20.85,12.13a1.3,1.3,0,0,0-1.49-1.44,2,2,0,0,0-2.16,1.82c0,.91.49,1.46,1.58,1.46A1.91,1.91,0,0,0,20.85,12.13ZM15.58,22.77c-.55,2.1,0,2.58.81,2.58a8.24,8.24,0,0,0,4.69-2.59l-.45-.6a4.07,4.07,0,0,1-1.77.89c-.18,0-.26-.24-.08-.93l1-3.92c.39-1.43.26-2.37-.53-2.37a10.49,10.49,0,0,0-5.07,2.54l.39.65a6,6,0,0,1,1.87-.82c.18,0,.16.24,0,.84Z"/></svg>