<svg xmlns="http://www.w3.org/2000/svg" viewBox="0 0 48 48"><defs><style>.a,.b{fill:none;}.b{stroke:#8f97ab;stroke-linecap:round;stroke-linejoin:round;stroke-width:4px;}</style></defs><title>huiyuan</title><rect class="a" width="48" height="48"/><path class="b" d="M34.48,34h6.7A2.9,2.9,0,0,1,44,37V37a2.9,2.9,0,0,1-2.82,3H6.82A2.9,2.9,0,0,1,4,37V37a2.9,2.9,0,0,1,2.82-3H34.48Z"/><circle class="b" cx="23.5" cy="12" r="4"/><path class="b" d="M15.75,26a8.24,8.24,0,0,1-.25-2,8,8,0,0,1,16,0,8.24,8.24,0,0,1-.25,2"/><path class="b" d="M13.5,34a8,8,0,1,1,4-14.95"/><path class="b" d="M29.5,19.07A8,8,0,1,1,33.5,34"/></svg>