<svg xmlns="http://www.w3.org/2000/svg" xmlns:xlink="http://www.w3.org/1999/xlink" viewBox="0 0 80 80"><defs><style>.a,.b,.c,.f,.g{fill:none;}.a,.b,.c,.f{stroke:#fff;stroke-width:4.01px;}.a,.b,.c{stroke-miterlimit:10;}.b{clip-path:url(#a);}.c{clip-path:url(#b);}.d{clip-path:url(#c);}.e{clip-path:url(#d);}.f{stroke-linecap:round;stroke-linejoin:round;}</style><clipPath id="a"><path class="a" d="M54.55,57.4A25.63,25.63,0,0,0,65,37.08a25.26,25.26,0,0,0-10.71-20.6"/></clipPath><clipPath id="b"><path class="a" d="M46.21,35.48c2.21,5.93-3.34,9.38-7.51,9.4-8.32,0-13.81-7.75-13.1-15a16,16,0,0,1,2.8-7.8c2-3,8.68-8.55,15.5-8.55a20.11,20.11,0,0,1,10.41,2.91A25,25,0,0,0,15,37.13"/></clipPath><clipPath id="c"><path class="b" d="M43.92,13.7"/></clipPath><clipPath id="d"><path class="c" d="M15,37.13c0,4,.78,6,.88,6.07"/></clipPath></defs><title>logo</title><g class="d"><polygon class="a" points="16.78 15.22 63.63 6.51 73.16 56.59 26.31 65.3 16.78 15.22"/></g><path class="a" d="M54.55,57.4A25.63,25.63,0,0,0,65,37.08a25.26,25.26,0,0,0-10.71-20.6"/><path class="a" d="M43.92,13.7"/><g class="e"><rect class="a" x="14" y="13" width="39" height="43"/></g><path class="a" d="M46.21,35.48c2.21,5.93-3.34,9.38-7.51,9.4-8.32,0-13.81-7.75-13.1-15a16,16,0,0,1,2.8-7.8c2-3,8.68-8.55,15.5-8.55a20.11,20.11,0,0,1,10.41,2.91A25,25,0,0,0,15,37.13"/><path class="a" d="M15,37.13c0,4,.78,6,.88,6.07"/><path class="f" d="M39.28,31.89a12.88,12.88,0,0,0-1.47,4.43,4.19,4.19,0,0,1,4.28-3.41,5.55,5.55,0,0,1,4.53,3.37c2.66,4.92-.57,15-10.1,16.86A19.22,19.22,0,0,1,15.79,43C17,48.7,21.91,54.8,28.05,59c.13.09.27.17.41.25A60.33,60.33,0,0,1,40.08,68s6.19-5.14,11.29-8.43A31.54,31.54,0,0,0,55,57c3.53-3.29,8.7-10.34,5.79-19.53A14.08,14.08,0,0,0,55.4,30.2a13.43,13.43,0,0,0-7.88-2.73,9.52,9.52,0,0,0-8.24,4.42"/><rect class="g" width="80" height="80"/></svg>