<svg xmlns="http://www.w3.org/2000/svg" viewBox="0 0 80 80"><defs><style>.cls-1{fill:#fff;}.cls-2{fill:none;}</style></defs><title>资源 109</title><g id="图层_2" data-name="图层 2"><g id="图层_1-2" data-name="图层 1"><path class="cls-1" d="M56.48,13.57l-.49.69.47-.7A28.59,28.59,0,0,0,40,8.4,28.9,28.9,0,0,0,11.21,37.32a21.36,21.36,0,0,0,.94,6.88c1.44,6.35,6.75,13.3,13.91,18.19.18.12.37.23.57.35a63.26,63.26,0,0,1,12,9.06,2,2,0,0,0,2.7.13c.07-.05,6.6-5.47,11.87-8.87a41.69,41.69,0,0,0,3.55-2.43h0a29.36,29.36,0,0,0,12-23.38A28.94,28.94,0,0,0,56.48,13.57Zm-12.32.51h0a19.62,19.62,0,0,1,10,2.76A25,25,0,0,1,64.79,37.27c0,.67,0,1.33-.09,2-.15-.69-.33-1.4-.56-2.12a17,17,0,0,0-6.47-8.87A16.33,16.33,0,0,0,48.06,25,12.2,12.2,0,0,0,37.5,30.71a15.86,15.86,0,0,0-1.83,5.53,2,2,0,0,0,1.68,2.18,2,2,0,0,0,2.28-1.58,2.43,2.43,0,0,1,2.57-2,3.73,3.73,0,0,1,2.66,1.67,4.63,4.63,0,0,1-.42,4.32,7.5,7.5,0,0,1-5.84,2.84h-.06A11.49,11.49,0,0,1,30,39.79a13.19,13.19,0,0,1-3.4-10,15.18,15.18,0,0,1,2.67-7.44C31.09,19.56,37.61,14.09,44.16,14.08ZM15.86,42.7h0a18.1,18.1,0,0,1-.64-5.37A25,25,0,0,1,33.87,13.18a26,26,0,0,0-8,7,19.18,19.18,0,0,0-3.33,9.28A17.25,17.25,0,0,0,27,42.48a15.45,15.45,0,0,0,11.53,5.15h.08a12.22,12.22,0,0,0,6.17-1.83,12.31,12.31,0,0,1-8.89,6.71A18.54,18.54,0,0,1,15.86,42.7Zm35.24,17c-4.06,2.62-8.66,6.24-10.91,8.05A68.35,68.35,0,0,0,28.6,59.26l-.28-.16a37.46,37.46,0,0,1-5.17-4.24,22.54,22.54,0,0,0,13.5,1.59,16.45,16.45,0,0,0,11.86-9.17c1.91-4.05,2.06-8.52.4-11.7a8,8,0,0,0-6.28-4.75A8.72,8.72,0,0,1,48.06,29a12.42,12.42,0,0,1,7.28,2.55,13.12,13.12,0,0,1,5,6.82c3,9.48-3,16.34-5.66,18.85A30.74,30.74,0,0,1,51.1,59.69Z"/><rect class="cls-2" width="80" height="80"/></g></g></svg>