<?xml version="1.0" encoding="utf-8"?>
<!-- Generator: Adobe Illustrator 21.1.0, SVG Export Plug-In . SVG Version: 6.00 Build 0)  -->
<svg version="1.1" id="图层_1" xmlns="http://www.w3.org/2000/svg" xmlns:xlink="http://www.w3.org/1999/xlink" x="0px" y="0px"
	 viewBox="0 0 36 36" style="enable-background:new 0 0 36 36;" xml:space="preserve">
<style type="text/css">
	.st0{fill:#F98800;}
	.st1{enable-background:new    ;}
	.st2{fill:#FFFFFF;}
</style>
<title>di_1</title>
<g id="图层_2">
	<g id="图层_1-2">
		<path class="st0" d="M15.6,0h4.8C29,0,36,7,36,15.6v4.8C36,29,29,36,20.4,36h-4.8C7,36,0,29,0,20.4v-4.8C0,7,7,0,15.6,0z"/>
		<g class="st1">
			<path class="st2" d="M10,18.1c0-1,0-1.9,0.1-2.4c-0.5,0.8-1,1.6-1.8,2.4c-0.3-1.1-0.5-1.7-1-2.7c1.5-1.6,2.7-3.4,3.5-5.6
				c0.4-1,0.8-2.2,0.9-3.1l2.5,0.6c-0.8,2.6-1.1,3.3-2,5v12.3c0,1,0,1.7,0.1,2.6H9.9c0.1-0.9,0.1-1.5,0.1-2.6V18.1z M25.6,15.2
				c1,0,1.4,0,1.9-0.1v2.3c-0.6-0.1-1-0.1-1.9-0.1h-2.3c0.2,1.3,0.5,2.9,0.7,3.7c0.5,1.6,1.5,3.2,2.1,3.2c0.4,0,0.5-0.5,0.6-3.2
				c0.6,0.6,1.1,1.1,1.8,1.4c-0.3,3.3-1,4.6-2.3,4.6c-1.2,0-2.7-1.7-3.8-4.2c-0.8-1.7-1.1-2.9-1.4-5.5h-3.7v6.7
				c0.6-0.2,1.3-0.5,2.2-0.8l0,2.2c-0.8,0.4-2.6,1.1-4.3,1.8L14.4,25c0.5-0.4,0.6-0.7,0.6-1.9V10.8c0-1.1,0-1.5-0.1-2
				c0.2,0,0.4,0,0.5,0c3.3,0,8.1-1,9.9-2l1.8,2.2c-2.7,0.9-2.7,0.9-4.2,1.1c0,2.6,0,4.2,0.1,5.1H25.6z M20.9,15.2
				c-0.1-1.3-0.1-1.3-0.1-4c0-0.2,0-0.4,0-0.7c-1.5,0.2-1.8,0.2-3.4,0.4v4.3H20.9z M21.2,21.9c0.3,0.4,0.3,0.4,0.9,1.4
				c0.4,0.6,0.5,0.8,1,1.8c0.2,0.5,0.2,0.5,0.5,0.9l-2,1c-0.7-1.8-1.1-2.7-2.2-4.2L21.2,21.9z"/>
		</g>
	</g>
</g>
</svg>
