<svg xmlns="http://www.w3.org/2000/svg" xmlns:xlink="http://www.w3.org/1999/xlink" viewBox="0 0 35.97 35.97"><defs><style>.cls-1{fill:none;}.cls-2{clip-path:url(#clip-path);}.cls-3{fill:#19d100;}</style><clipPath id="clip-path" transform="translate(0 -0.02)"><rect class="cls-1" x="0.01" width="36" height="36"/></clipPath></defs><title>weixin</title><g id="图层_2" data-name="图层 2"><g id="图层_1-2" data-name="图层 1"><g class="cls-2"><path class="cls-3" d="M20.36,18a.87.87,0,0,0-.81.85.85.85,0,0,0,.82.76c.62,0,1-.38,1-.76a.94.94,0,0,0-1-.85Zm-2.7-4a1,1,0,0,0,1-1,1,1,0,0,0-1-1,1.1,1.1,0,0,0-1.2,1,1.1,1.1,0,0,0,1.2,1ZM18,0A18,18,0,1,0,36,18,18,18,0,0,0,18,0ZM14.6,22.57a9.69,9.69,0,0,1-2.9-.47l-3,1.5.85-2.52c-2.08-1.47-3.32-3.32-3.32-5.57,0-4,3.75-7,8.32-7,4,0,7.65,2.4,8.34,5.8a4.06,4.06,0,0,0-.78-.09,6.81,6.81,0,0,0-7.06,6.59,7.06,7.06,0,0,0,.23,1.76,6.14,6.14,0,0,1-.73,0Zm12.22,2.87.59,2.11-2.23-1.26a12.72,12.72,0,0,1-2.52.44c-3.93,0-7-2.7-7-6s3.11-6,7-6c3.71,0,7.06,2.7,7.06,6a6.21,6.21,0,0,1-2.9,4.75ZM11.86,12a1.16,1.16,0,0,0-1.26,1,1.16,1.16,0,0,0,1.26,1,1,1,0,0,0,1-1,1,1,0,0,0-1-1ZM25,18a.84.84,0,0,0-.82.85.83.83,0,0,0,.82.76.94.94,0,0,0,1-.76A.94.94,0,0,0,25,18Zm0,0" transform="translate(0 -0.02)"/></g></g></g></svg>