<svg xmlns="http://www.w3.org/2000/svg" viewBox="0 0 48 48"><defs><style>.cls-1{fill:none;}.cls-2{fill:#fd5637;}</style></defs><title>xiazai</title><g id="图层_2" data-name="图层 2"><g id="图层_1-2" data-name="图层 1"><rect class="cls-1" width="48" height="48"/><path class="cls-2" d="M30.59,30.53l-4.59,4V27a2,2,0,1,0-4,0v7.54l-4.59-4a2,2,0,1,0-2.63,3l7.91,6.91a2,2,0,0,0,2.63,0l7.91-6.91a2,2,0,1,0-2.63-3Z"/><path class="cls-2" d="M41.76,17.07a12.49,12.49,0,0,0-24.32-.81A9,9,0,0,0,7.33,27.53a2,2,0,0,0,3.85-1.07,5,5,0,0,1,6-6.2,2,2,0,0,0,3.6.17,2,2,0,0,0,.38-2.4A8.5,8.5,0,0,1,38,19.5v2A3.5,3.5,0,0,1,34.5,25a2,2,0,0,0,0,4A7.51,7.51,0,0,0,42,21.5V18A2,2,0,0,0,41.76,17.07Z"/></g></g></svg>