<?xml version="1.0" encoding="utf-8"?>
<!-- Generator: Adobe Illustrator 21.1.0, SVG Export Plug-In . SVG Version: 6.00 Build 0)  -->
<svg version="1.1" id="图层_1" xmlns="http://www.w3.org/2000/svg" xmlns:xlink="http://www.w3.org/1999/xlink" x="0px" y="0px"
	 viewBox="0 0 48 48" style="enable-background:new 0 0 48 48;" xml:space="preserve">
<style type="text/css">
	.st0{fill:none;}
	.st1{fill:#FFFFFF;}
</style>
<title>资源 19</title>
<g id="图层_2">
	<g id="图层_1-2">
		<rect class="st0" width="48" height="48"/>
		<path class="st1" d="M40.5,19.8c3.3-3,3.5-8,0.5-11.3C38,5.2,33,5,29.7,8c-0.5,0.5-1,1-1.3,1.6c-2.9-0.7-5.9-0.7-8.8,0
			c-2.4-3.7-7.3-4.8-11.1-2.4s-4.8,7.3-2.4,11.1c0.4,0.6,0.8,1.1,1.3,1.6c-3,6.8-1.5,14.8,3.9,20l-2.3,2.3c-0.8,0.8-0.8,2,0,2.8
			s2,0.8,2.8,0l2.6-2.6c5.9,3.7,13.4,3.6,19.2-0.2l2.8,2.8c0.8,0.8,2,0.8,2.8,0s0.8-2,0-2.8l-2.5-2.5C42,34.3,43.4,26.5,40.5,19.8z
			 M39,14c0,0.8-0.2,1.5-0.7,2.2c-1.6-2.1-3.6-3.9-6-5.1c1.7-1.5,4.2-1.3,5.6,0.3C38.6,12.1,39,13,39,14z M13,10c1,0,2,0.4,2.7,1.1
			c-2.4,1.2-4.4,3-6,5.1c-1.2-1.9-0.7-4.3,1.2-5.5C11.5,10.2,12.3,10,13,10z M24,41c-7.7,0-14-6.3-14-14l0,0c0-2.4,0.6-4.7,1.8-6.8
			c3.8-6.8,12.3-9.2,19-5.4c2.3,1.3,4.2,3.1,5.4,5.4c1.2,2.1,1.8,4.4,1.8,6.8C38,34.7,31.7,41,24,41L24,41z"/>
		<path class="st1" d="M28,27h-2v-6c0-1.1-0.9-2-2-2s-2,0.9-2,2v8c0,1.1,0.9,2,2,2h4c1.1,0,2-0.9,2-2S29.1,27,28,27z"/>
	</g>
</g>
</svg>
